<?xml version="1.0" standalone="no"?>
<!DOCTYPE svg PUBLIC "-//W3C//DTD SVG 20010904//EN"
 "http://www.w3.org/TR/2001/REC-SVG-20010904/DTD/svg10.dtd">
<svg version="1.0" xmlns="http://www.w3.org/2000/svg"
 width="191.000000pt" height="191.000000pt" viewBox="0 0 191.000000 191.000000"
 preserveAspectRatio="xMidYMid meet">
<metadata>
Created by potrace 1.14, written by Peter Selinger 2001-2017
</metadata>
<g transform="translate(0.000000,191.000000) scale(0.100000,-0.100000)"
fill="#000000" stroke="none">
<path d="M743 1885 c-348 -80 -620 -344 -714 -695 -33 -123 -33 -347 1 -470
90 -330 331 -582 651 -679 185 -56 398 -52 583 11 302 103 535 356 616 668 39
148 35 358 -10 514 -38 130 -133 287 -241 395 -136 137 -281 214 -504 268 -11
2 -78 6 -150 8 -108 2 -147 -1 -232 -20z m197 -91 c0 -6 -51 -91 -341 -570
-70 -116 -138 -229 -151 -251 -96 -167 -244 -401 -249 -395 -16 19 -52 126
-70 202 -25 114 -20 292 11 399 89 310 338 541 652 605 72 15 148 20 148 10z
m234 -24 c81 -20 188 -70 265 -122 109 -75 230 -221 290 -353 88 -190 91 -464
8 -660 l-24 -58 -16 24 c-13 21 -213 350 -595 984 -63 105 -117 196 -120 204
-7 18 84 9 192 -19z m-169 -217 c22 -36 49 -82 61 -102 16 -28 131 -218 193
-321 84 -138 291 -481 291 -483 0 -1 -265 -2 -590 -2 -324 0 -590 1 -590 3 0
2 19 35 43 73 23 39 49 83 58 97 9 15 113 187 231 382 118 195 223 370 233
388 11 17 22 32 25 32 3 0 23 -30 45 -67z m685 -1013 c0 -19 -85 -127 -150
-190 -168 -164 -375 -243 -615 -236 -223 7 -407 87 -566 245 -64 64 -142 168
-134 180 4 7 1465 8 1465 1z"/>
</g>
</svg>
